<?xml version="1.0" encoding="utf-8"?>
<!-- Generator: Adobe Illustrator 19.1.0, SVG Export Plug-In . SVG Version: 6.00 Build 0)  -->
<svg version="1.1" xmlns="http://www.w3.org/2000/svg" xmlns:xlink="http://www.w3.org/1999/xlink" x="0px" y="0px"
	 viewBox="0 0 459.3 372.2" style="enable-background:new 0 0 459.3 372.2;" xml:space="preserve">
<style type="text/css">
	.st0{display:none;}
	.st1{display:inline;}
	.st2{fill:#37424A;}
</style>
<g id="bg" class="st0">
</g>
<g id="original">
</g>
<g id="stinger">
</g>
<g id="outlines">
	<path class="st2" d="M459.1,163.5c-1.9-30.7-59.7-35.4-77.4-36.1c-9.7-0.4-30.8-2.5-49.6-5.5c0.3-9.2,0.9-26.4,1.2-28.7
		c0.3-2.5-0.5-6.9-2.7-11.5c3.6-3.7,5.1-7.2,4.4-10.6c-1.1-5.5-7.7-7.9-7.9-8l-5.9-2.1l3.6,5.1c1.3,1.8,1.8,3.4,1.4,4.6
		c-0.4,1.3-1.7,2.1-2.5,2.6c-0.4-0.1-0.8,0-1.2,0.1c-1.1,0.4-4,1.4-6.4,27l-4.9,17.7c-3.2-0.8-6.1-1.6-8.4-2.4
		c-8.1-2.9-14.7-2.2-19.5-0.3c-0.8-5.5-2-11-3.4-16.4c-1.2-4.5-2.6-8.9-4.2-13.2c1.3-0.7,2.8-1.4,4.2-2.1c3-1.5,5.9-2.8,7.8-4.2
		c9.5-6.5,9.7-13.9,9.2-16.7c-0.2-1.4-0.6-2.7-1.2-3.8c0.9-3.4,0.6-6.2-0.9-8.1c-2.2-2.7-5.7-2.6-6.1-2.5l-5.7,0.4l4.8,3.2
		c0.8,0.5,1.3,1.1,1.4,1.8c0.1,0.6-0.1,1.3-0.3,1.9c-8.6-0.1-12.6,10.1-14.1,13.8c-0.8,1.9-2.1,4.5-3.2,6.7c-1.6-3.3-3.3-6.4-5-9.2
		l-0.1-0.1c0.8-7.6-0.7-13.5-4.7-17.6c-5.9-5.9-15-6-18.9-5.7l-0.3-0.2c-1.3-0.8-2.5-1.2-3.7-1.5c0.8-1.4,1.8-3.1,3.1-5.1
		c0.8-1.2,1.7-2.4,2.8-3.7c0.5-0.6,1-1.3,1.6-1.9c0.6-0.7,1.2-1.3,1.9-2c2.6-2.8,5.2-5.8,7.6-9.1c0.6-0.8,1.2-1.7,1.7-2.6
		c0.6-0.9,1-1.9,1.4-2.7c0.9-1.7,1.8-3.3,2.8-4.8c2-3,4.4-5.4,6.8-6.8c2.4-1.4,4.8-1.8,6.4-1.6c0.8,0.1,1.5,0.2,1.9,0.3
		c0.4,0.1,0.7,0.2,0.7,0.2l0.4-1.2c0,0-0.2-0.1-0.7-0.2c-0.5-0.2-1.2-0.3-2.1-0.5c-1.8-0.3-4.6-0.1-7.4,1.4c-2.8,1.4-5.5,4-7.8,7
		c-1.2,1.5-2.2,3.2-3.3,4.9c-0.5,0.9-0.9,1.7-1.5,2.4c-0.5,0.7-1.1,1.5-1.7,2.2c-2.4,3-5.2,5.8-7.8,8.2c-0.7,0.6-1.3,1.2-2,1.8
		c-0.7,0.6-1.3,1.3-1.9,1.9c-1.2,1.3-2.3,2.6-3.2,3.8c-1.9,2.4-3.3,4.6-4.2,6.1c-0.2,0.3-0.3,0.6-0.5,0.9c-0.8-0.1-1.6-0.2-2.6-0.2
		v-0.1c0,0-1.1,0-1.5,0c-0.4,0-0.5,0-1.5,0v0.1c-1,0-1.6,0.1-2.5,0.2c-0.2-0.3-0.2-0.6-0.4-0.9c-0.9-1.5-2.3-3.7-4.2-6.1
		c-1-1.2-2-2.5-3.2-3.8c-0.6-0.6-1.2-1.3-1.9-1.9c-0.7-0.6-1.3-1.2-2-1.8c-2.7-2.5-5.4-5.3-7.8-8.2c-0.6-0.7-1.2-1.5-1.7-2.2
		c-0.5-0.7-0.9-1.6-1.5-2.4c-1-1.7-2.1-3.4-3.3-4.9c-2.3-3-5-5.5-7.8-7c-2.8-1.5-5.6-1.7-7.4-1.4c-0.9,0.1-1.6,0.3-2.1,0.5
		c-0.5,0.1-0.7,0.2-0.7,0.2l0.4,1.2c0,0,0.2-0.1,0.7-0.2c0.4-0.1,1.1-0.2,1.9-0.3c1.6-0.1,4,0.2,6.4,1.6c2.4,1.4,4.8,3.8,6.8,6.8
		c1,1.5,1.9,3.1,2.8,4.8c0.4,0.8,0.8,1.8,1.4,2.7c0.5,0.9,1.1,1.7,1.7,2.6c2.4,3.3,5,6.3,7.6,9.1c0.6,0.7,1.3,1.3,1.9,2
		c0.6,0.6,1.1,1.2,1.6,1.9c1,1.2,1.9,2.5,2.7,3.7c1.3,1.9,2.3,3.7,3.1,5.1c-1.2,0.3-2.5,0.7-3.8,1.5l-0.3,0.2
		c-3.9-0.3-13-0.1-18.8,5.7c-4,4.1-5.6,10-4.7,17.6l-0.1,0.1c-1.8,2.8-3.4,5.9-5,9.2c-1.2-2.2-2.5-4.8-3.2-6.8
		c-1.5-3.7-5.5-13.8-14.1-13.7c-0.2-0.5-0.4-1.2-0.3-1.9c0.1-0.7,0.6-1.3,1.4-1.8l4.8-3.2l-5.7-0.4c-0.4,0-3.9-0.2-6.1,2.5
		c-1.5,1.9-1.8,4.6-0.9,8.1c-0.6,1.1-1,2.4-1.2,3.8c-0.4,2.8-0.3,10.2,9.2,16.7c1.9,1.3,4.8,2.7,7.8,4.2c1.4,0.7,2.9,1.4,4.2,2.1
		c-1.6,4.3-3.1,8.7-4.2,13.2c-1.5,5.4-2.6,10.9-3.4,16.4c-4.8-1.8-11.3-2.6-19.5,0.3c-2.3,0.8-5.2,1.6-8.4,2.4l-4.9-17.7
		c-2.3-25.6-5.3-26.6-6.4-27c-0.4-0.1-0.8-0.2-1.2-0.1c-0.7-0.4-2.1-1.2-2.5-2.5c-0.4-1.2,0.1-2.8,1.4-4.6l3.6-5.1l-5.9,2.1
		c-0.3,0.1-6.8,2.5-7.9,8c-0.7,3.3,0.8,6.9,4.4,10.6c-2.2,4.6-3,9.1-2.7,11.5c0.3,2.3,0.9,19.5,1.2,28.7c-18.8,3-39.9,5.1-49.6,5.5
		c-17.7,0.7-75.5,5.4-77.4,36.1c-0.4,2.1-1.6,12.9,14.9,23.6c-0.1,3.9,1.2,12.6,14.6,18.4c0.2,0.1,9.3,3.5,13.3,8
		c2.6,2.8,6.9,4.1,11.7,3.4c1.2-0.2,2.2-0.4,3.3-0.8c-0.2,0.8-0.5,1.7-0.7,2.5c-2.1,7.8,0.6,12.5,3.3,15c4.8,4.5,13.1,5.9,21.6,5.9
		c11.1,0,22.5-2.5,26.8-3.9c6.1-2.1,12.5-6.7,18.8-13.9c5.3-0.8,28.6-6.1,40.2-35.4c1.7-4.3,2.4-8.6,3.2-13.2
		c0.1-0.9,0.3-1.8,0.5-2.7c3.2,1,8.6,3,13.4,5.9c0.1,0.2,0.2,0.4,0.3,0.6c3.7,5.9,8.2,10.7,13.7,14.3c-11.4,4.9-42.9,18.8-53.2,27.4
		c-3.7,3.1-5.3,5.6-5,8.1c0,0.2,0.1,0.4,0.2,0.6c-2.8,6.9-23.6,59.4-18.7,85.9l0,0.3l0.1,0.3c0.7,1.4,18.1,35.3,27.6,42.9l6.2,5
		l-22.3-49.3c3.9-9.4,25.4-62.3,22.1-76c2.3-1.7,8.4-5.4,17-4.9c-1.5,3.9-2.7,7.6-3.8,11.4c-10,34.3-7.9,67.5,5.8,91.2
		c11.2,19.4,29.6,32.2,54.7,38.3l0,0c0,0,0,0,0,0c0,0,0,0,0,0l0,0c25.1-6,43.5-18.9,54.7-38.3c13.7-23.7,15.8-56.9,5.8-91.2
		c-1.1-3.8-2.4-7.5-3.8-11.4c8.5-0.5,14.7,3.2,17,4.9c-3.3,13.7,18.2,66.6,22.1,76l-22.3,49.3l6.2-5c9.6-7.6,26.9-41.5,27.6-42.9
		l0.1-0.3l0-0.3c4.9-26.4-15.9-79-18.7-85.9c0-0.2,0.1-0.4,0.2-0.6c0.3-2.5-1.3-5-5-8.1c-10.4-8.6-41.9-22.5-53.3-27.4
		c5.4-3.7,10-8.5,13.7-14.3c0.1-0.2,0.2-0.4,0.3-0.6c4.8-2.9,10.2-4.9,13.4-5.9c0.2,0.9,0.3,1.8,0.5,2.7c0.8,4.6,1.5,8.9,3.2,13.2
		c11.6,29.3,34.9,34.5,40.2,35.4c6.4,7.1,12.7,11.8,18.8,13.9c4.2,1.5,15.7,3.9,26.8,3.9c8.5,0,16.8-1.5,21.6-5.9
		c2.7-2.5,5.4-7.1,3.3-15c-0.2-0.8-0.5-1.7-0.7-2.5c1,0.3,2.1,0.6,3.3,0.8c4.8,0.7,9.1-0.6,11.7-3.4c4-4.4,13.1-7.9,13.3-8
		c13.4-5.8,14.7-14.6,14.6-18.4C460.7,176.4,459.5,165.5,459.1,163.5z M329.9,71.7c0.2-0.6,0.3-1.3,0.3-1.9c0.5,0.6,0.9,1.3,1,2.1
		c0.4,2.1-0.9,4.4-2.6,6.3c-0.5-0.8-1.1-1.6-1.8-2.4C328.1,74.9,329.4,73.6,329.9,71.7z M319.9,101l0.1-0.3
		c0.8-8.9,2.3-19.2,3.6-22.8c4.7,5.6,6.2,12.4,5.9,14.8c-0.3,2.7-0.9,21-1.2,28.6c-4.7-0.8-9.2-1.6-13.3-2.5L319.9,101z M278.4,70.5
		c2.5-6.2,6.2-13.1,13.2-10.8c0.4,0.2,1.4,1.7,1.6,4c0.2,2.5-0.6,7.5-7.7,12.3c-1.7,1.2-4.5,2.5-7.3,3.9c-1.3,0.6-2.7,1.3-3.9,1.9
		c-0.2-0.5-0.5-1.1-0.7-1.6C274.9,77.9,277.2,73.5,278.4,70.5z M250.8,47.4l-0.7-0.2c3.1,0.5,6.5,1.9,9,4.4c2.9,3,4.2,7.1,3.8,12.9
		c-4.5-2.9-13.7-9.1-18-17.1H250.8z M200.3,51.7c2.5-2.5,5.8-4,9-4.5l-0.7,0.2h6c-4.4,8-13.6,14.2-18,17.1
		C196.1,58.8,197.3,54.7,200.3,51.7z M186.9,91c0.6-1.7,1.4-3.4,2-5.1c0.5-1.3,1.1-2.7,1.7-4c2-4.6,4.2-8.8,6.5-12.5l-0.3-0.2
		c0.1-0.1,0.2-0.1,0.4-0.2c0.3-0.2,0.6-0.3,0.9-0.6c0.5-0.3,1-0.6,1.6-1c0.3-0.2,0.5-0.4,0.8-0.5c2-1.4,4.6-3.2,7.1-5.4
		c0.6-0.5,1.1-1,1.7-1.5c0.8-0.8,1.7-1.6,2.5-2.4c0.2-0.2,0.4-0.5,0.7-0.7c0.6-0.7,1.2-1.4,1.8-2c0.2-0.2,0.4-0.5,0.6-0.8
		c0.8-0.9,1.4-1.8,2.1-2.8c0.8-1.2,1.6-2.5,2.2-3.9l0.1,0.2c1.5-0.9,3-1.1,4.7-1.3l1-0.1c1.4-0.2,2.8-0.3,4.7-0.4
		c1.9,0,3.3,0.2,4.7,0.4l1.1,0.1c1.7,0.2,3.1,0.5,4.6,1.3l0.1-0.1c4.8,10.5,18.7,19.5,22.4,21.8l-0.3,0.2c2.3,3.7,4.5,7.9,6.5,12.5
		c0.6,1.3,1.1,2.6,1.7,4c0.9,2.4,2,4.8,2.7,7.2C259.5,81.5,236,80.1,230,80v0c0,0-0.5,0-0.9,0c-0.4,0-1.1,0-1.1,0v0
		c-5,0.2-27.8,1.7-41.5,12C186.6,91.7,186.8,91.3,186.9,91z M181.1,80c-2.8-1.3-5.6-2.7-7.3-3.9c-7-4.8-7.8-9.8-7.7-12.3
		c0.2-2.4,1.2-3.8,1.6-4c7-2.3,10.7,4.6,13.3,10.9c1.2,3,3.5,7.4,4.8,9.7c-0.2,0.5-0.5,1.1-0.7,1.6C183.7,81.3,182.4,80.6,181.1,80z
		 M135.7,77.8c1.3,3.7,2.8,13.9,3.6,22.8l5,18c-4.1,0.9-8.6,1.7-13.3,2.5c-0.2-7.6-0.8-25.9-1.2-28.6
		C129.5,90.2,131,83.4,135.7,77.8z M128,71.9c0.1-0.8,0.5-1.5,1-2.1c0,0.7,0.1,1.3,0.3,1.9c0.6,1.9,1.9,3.2,3.1,4
		c-0.6,0.8-1.2,1.6-1.8,2.4C129,76.3,127.6,74,128,71.9z M60.9,207.6c-1,2-3.8,3.6-7.1,4.1c-3,0.4-5.7-0.2-7.1-1.8
		c-4.9-5.3-14.7-9.1-15.2-9.3c-13-5.6-11.4-14-11.3-14.4l0.4-1.8l-1.6-1c-15.9-9.7-14-18.7-13.9-19l0.1-0.5
		c1.4-27.2,60.6-31,72.4-31.5c15.2-0.6,61.9-5.9,80.2-12.2c7.1-2.4,13-1.2,17.2,0.8c0.9,0.4,1.7,0.8,2.5,1.3c1,0.6,1.8,1.1,2.5,1.6
		c1.2,0.9,1.8,1.6,1.8,1.6c0,0,0.5,0.4,1.1,1c0,0,0,0,0,0c0.1,0.5,0.3,1,0.5,1.5c-0.7,0.3-1.7,1-3.8,2.2c-0.1,0-0.3,0.1-0.4,0.1
		c0,0-0.3,0-0.3,0.1v-0.2c-1,0.8-2,1.9-5,3.2v0.2c0,0.1-0.3,0.2-0.5,0.4c-18.8,11.5-57.7,35.6-72.9,40.1
		c-18.9,5.6-31.8,16.6-39.4,33.5L60.9,207.6z M165.9,172.1c-0.8,4.5-1.4,8.4-2.9,12.2c-11.7,29.5-36.7,32.3-37,32.3l-1,0.1l-0.7,0.8
		c-5.9,6.7-11.8,11.3-17.2,13.1c-7.5,2.6-34.6,7.1-43.1-0.9c-2.4-2.3-3-5.5-1.8-9.8c0.8-3.1,1.8-6.1,3-8.9l0.3,0.1
		c7-16.2,19-26.7,36.8-32c15.3-4.5,52.7-27.4,72.3-39.5c0,0,0.1,0,0.1-0.1c0.6-0.4,1.2-0.8,1.8-1.1c1-0.6,2-1.2,3-1.8
		c0.1-0.1,0.2-0.1,0.3-0.2c0.3-0.2,0.5-0.3,0.8-0.5c-0.3,0.4-0.5,0.7-0.8,1.1c-0.1,0.1-0.2,0.3-0.3,0.4c-0.8,1.1-1.5,2.2-2.1,3.2
		c-0.8,1.3-1.6,2.6-2.3,3.8c0,0,0,0.1,0,0.1C168.6,155.7,167.2,164.6,165.9,172.1z M181.7,170.1c-1.3-0.6-2.6-1.2-3.8-1.6
		c-1-0.4-1.9-0.7-2.7-1c-0.3-0.1-0.6-0.2-0.9-0.3c-0.1,0-0.1-0.1-0.2-0.1c-0.2-0.1-0.3-0.1-0.5-0.2c-0.5-0.2-1-0.3-1.4-0.4
		c0.8-4,2-8.3,4.1-13.1c0,0,0,0,0,0c0.1-0.2,0.3-0.5,0.4-0.7c0.1,0.2,0.4,0.5,0.4,0.7c0,0,0,0,0,0c0,1.6,0.3,3.2,0.7,4.7
		c0.3,1.1,0.6,2.1,0.9,3.2c0.2,0.8,0.5,1.5,0.7,2.3C179.9,165.9,180.8,168.1,181.7,170.1C181.7,170.2,181.7,170.2,181.7,170.1z
		 M130,311.5l-0.3,0.8l13.6,30.2c-7.9-11.8-16.3-28.1-17.4-30.3c-4.1-23.4,13.1-69.7,17.7-81.4c1.2,0.8,2.6,1.5,3.9,2.1
		c1.7,0.8,4.2,2,4.3,2.9l0.6,3.5l0.2-0.2C153.2,250.9,139.6,288.4,130,311.5z M154.3,232.6c-1.3-1.3-3.3-2.3-5.2-3.2
		c-1.9-0.9-4.5-2.1-4.7-3.3c-0.1-0.4,0.1-1.8,3.6-4.6c8.2-6.8,31-17.4,44.9-23.6c-4.3,3.8-7.9,8.1-10.6,12.9
		c-2.8,4.9-5.5,10.5-7.9,16.7C164.7,226.5,157.5,230.4,154.3,232.6z M229,239c0.2,0,0,0,1,0v0c26-0.6,39.7-15.4,44-23.1
		c2.3,4.4,4.4,9.4,6.5,14.8c1.8,4.6,3.5,9.1,4.5,13.5c0,0,0,0,0,0c0,0,0.2,0.2,0.2,0.2c-0.9,1.1-2.3,3-4.4,5c0,0,0,0,0,0
		c-0.3,0-0.6,0.5-0.9,0.8c0,0,0-0.1,0-0.1c-0.2,0.1-0.3,0-0.5,0.2c-0.9,0.8-1.8,2.1-2.8,2.1c0,0,0,0,0,0c-0.4,1-0.8,0.9-1.3,1.2
		c-0.5,0.3-0.9,0.8-1.4,1.1c-0.5,0.3-1,0.7-1.5,1c-0.3,0.2-0.5,0.3-0.8,0.5c-3.1,1.9-6.8,3.9-11.1,5.5c-8.2,3.2-18.6,5.6-31.5,5.6
		c-15.9-0.1-28-3.8-36.9-8.4c-0.5-0.2-0.9-0.5-1.4-0.7c-0.6-0.3-1.1-0.6-1.6-0.9c-0.4-0.2-0.8-0.5-1.1-0.7c-0.9-0.5-1.7-1-2.5-1.6
		c-0.4-0.3-0.8-0.5-1.2-0.8s-0.7-0.5-1.1-0.8s-0.7-0.5-1-0.8c-2.7-2.1-4.8-4-6.4-5.7c-0.6-0.6-1-1.1-1.5-1.6
		c-0.2-0.2-0.3-0.4-0.5-0.6c0.1-0.3,0.1-0.6,0.2-0.8c0.2-0.6,0.4-1.2,0.6-1.9c0.1-0.5,0.3-1,0.5-1.5c1-3.3,2.2-6.7,3.6-10.2
		c2-5.1,4-9.9,6.2-14.1c4.9,8,19.1,21.8,43.1,22.4v0C229,239,228.8,239,229,239z M289.4,306c-0.1,0.6-0.3,1.2-0.4,1.8
		s-0.3,1.2-0.4,1.8c-1.9,7.8-4.8,14.9-8.6,21.4c-10.3,17.8-27.2,30.3-50.3,35.3h0l0,0.2c-23.1-5.8-40-17.6-50.3-35.4
		c-1.6-2.7-3-5.6-4.3-8.6c-0.3-0.7-0.6-1.4-0.9-2.1c-2-5.1-3.5-10.5-4.6-15.9c0,0,0,0,0,0c-0.3-1.4-0.5-2.7-0.7-4.1h0.1v-0.1
		c0,0,0,0,0,0c0,0.1,0.3,0.2,0.5,0.3c0,0,0,0,0,0c0.1,0,0.1,0,0.2,0.1c2.9,1.5,7.2,3.4,12.7,5.3c1,0.3,2.1,0.7,3.1,1
		c0.6,0.2,1.1,0.3,1.7,0.5c0.5,0.1,1,0.3,1.5,0.4c1.7,0.5,3.4,0.9,5.2,1.3c0.4,0.1,0.9,0.2,1.3,0.3c0.8,0.2,1.7,0.4,2.5,0.5
		c0.6,0.1,1.2,0.2,1.7,0.3c0.2,0.1,0.5,0.1,0.7,0.1c0.6,0.1,1.1,0.2,1.7,0.3c0.9,0.2,1.8,0.3,2.8,0.5c0.7,0.1,1.4,0.2,2.1,0.3
		c0.8,0.1,1.6,0.2,2.4,0.3c0.8,0.1,1.6,0.2,2.4,0.3c0.9,0.1,1.8,0.2,2.7,0.3c0.9,0.1,1.7,0.1,2.6,0.2c0.9,0.1,1.8,0.1,2.7,0.2
		c0.9,0,1.8,0.1,2.8,0.1c0,0,0.1,0,0.2,0c1.8,0.1,3.6,0.1,5.5,0.1v0c1,0,0.8,0,1,0c0.2,0,0,0,1,0v0c33-0.2,53.1-9.2,60.4-13.3
		C290.1,302,289.8,304,289.4,306z M290.7,296.7c-5.5,3.3-26,13.8-61.6,13.9c-33.1-0.1-53.7-9.8-60.4-13.5c-1.7-15.2-0.4-32,4.2-49.3
		c6.3,7.1,23.2,21.8,55.2,22.1v0c1,0,0.8,0,1,0c0.2,0,0,0,1,0v0c34-0.4,50.7-16,56.3-22.8C291,264.5,292.3,281.4,290.7,296.7z
		 M333.4,312.1c-1.1,2.2-9.6,18.5-17.4,30.3l13.6-30.2l-0.3-0.8c-9.6-23.1-23.2-60.6-22.6-72.3l0.2,0.2l0.6-3.5
		c0.1-0.9,2.7-2.1,4.4-2.9c1.3-0.6,2.7-1.3,3.9-2.1C320.3,242.5,337.6,288.8,333.4,312.1z M311.3,221.5c3.5,2.9,3.6,4.3,3.6,4.6
		c-0.2,1.1-2.8,2.4-4.7,3.3c-1.9,0.9-3.9,1.9-5.2,3.2c-3.2-2.2-10.4-6.1-20.1-5.1c-2.5-6.2-5.1-11.8-7.9-16.7
		c-2.7-4.8-6.3-9.2-10.6-12.9C280.3,204.1,303.1,214.7,311.3,221.5z M272.5,213.3c-3.1,6-16,22.7-43.4,23.1
		c-25.4-0.3-38.8-15.6-42.6-22.4c0.1-0.2,0.2-0.5,0.4-0.7c4.3-7.6,11-14,19.3-18.2c6.4,2.9,13.9,4.4,21.9,4.7v0.1c1,0,1.1,0,1.5,0
		s1.5,0,1.5,0v-0.1c9-0.2,15.6-1.8,22-4.7C261.3,199.4,268.2,205.8,272.5,213.3z M274.3,165.7c-1.3,3-2.8,5.8-4.4,8.4
		c-4,6.4-9.3,11.3-15.6,14.7c-0.3,0.1-0.5,0.3-0.8,0.5c-0.1,0-0.1,0-0.2,0.1c0,0-0.1,0-0.1,0c-0.1,0-0.1,0-0.2,0h0.1v0.2
		c-1,0.2-1,0.4-1.5,0.6c-6.2,2.8-13.4,4.3-21.8,4.5c-8.5-0.1-15.8-1.6-22-4.5c-0.4-0.2-1.7-0.4-1.7-0.6v-0.2h0.5
		c-0.5,0-0.9-0.4-1.4-0.6c-6.3-3.4-11.6-8.4-15.6-14.8c-2-3.2-3.9-6.7-5.3-10.5c7.5,5.6,21.8,13.9,43.8,14.2v0c1,0,0.8,0,1,0
		c0.2,0,0,0,1,0v0c23-0.3,38.4-9.2,45.4-14.9C275,163.8,274.7,164.7,274.3,165.7z M276.6,158.3c-4.8,4.4-20.5,16.6-47.6,16.8
		c-24.6-0.2-40.2-11-46.1-16c-0.2-0.7-0.4-1.5-0.6-2.2c-0.9-3.5-1.6-7.3-2-11.3c2.2-3.7,5-7.7,8.6-12c0.1,0,0.2,0,0.3,0
		c2.5,0,4.8-2.2,6.9-6.6c3.6-7.4,4-12.4,1.3-15c-3-2.9-8.7-1.3-10.8-0.2c-2.4,1.3-3.6,3.9-4.1,7c-0.5-0.4-1.1-0.8-1.7-1.2
		c0.8-5.9,2-11.8,3.5-17.5c0.3-1,0.6-2.1,0.9-3.1c12.7-13.1,39.9-14.3,44-14.4c5.1,0.1,33.1,1.3,45.3,15.4c0.2,0.7,0.4,1.4,0.6,2.1
		c1.5,5.8,2.7,11.6,3.5,17.5c-0.6,0.4-1.2,0.8-1.7,1.2c-0.4-3-1.7-5.7-4.1-7c-2.1-1.1-7.8-2.7-10.8,0.2c-2.7,2.6-2.2,7.6,1.3,15
		c2.1,4.4,4.4,6.6,6.9,6.6c0.1,0,0.2,0,0.3,0c3.6,4.3,6.4,8.3,8.6,12c-0.4,4-1.1,7.8-2,11.3C276.9,157.3,276.8,157.8,276.6,158.3z
		 M184.6,130.7v-0.2c0,0,0,0,0,0C184.6,130.5,184.6,130.6,184.6,130.7C184.6,130.6,184.6,130.6,184.6,130.7z M184.9,120.9
		c0-3,0.9-5.8,2.9-6.8c1.1-0.6,3-1.1,4.8-1.1c1.2,0,2.3,0.2,3,0.9c1.7,1.7,1.1,6-1.8,12c-1.3,2.8-2.7,4.5-3.9,5
		c-0.3,0.1-0.6,0.2-0.8,0.1c-1.6-0.2-3.2-3-3.8-6.6C185,123.3,184.9,122.1,184.9,120.9z M274.7,130.4v0.2c0,0,0,0,0,0
		C274.7,130.6,274.7,130.5,274.7,130.4C274.7,130.4,274.7,130.4,274.7,130.4z M274.4,120.9c0,1.2-0.1,2.4-0.3,3.5
		c-0.6,3.6-2.2,6.4-3.8,6.6c-0.3,0-0.5,0-0.8-0.1c-1.2-0.5-2.6-2.2-3.9-5c-2.9-6.1-3.6-10.4-1.8-12c0.7-0.7,1.8-0.9,3-0.9
		c1.8,0,3.7,0.6,4.8,1.1C273.5,115.1,274.4,117.9,274.4,120.9z M285.2,167.1c-0.4,0.1-0.7,0.2-1.1,0.4c-0.2,0.1-0.4,0.1-0.6,0.2
		c-0.2,0.1-0.4,0.2-0.6,0.2c-0.4,0.1-0.8,0.3-1.3,0.5c-0.3,0.1-0.7,0.3-1,0.4c-0.3,0.1-0.7,0.3-1,0.4c-0.3,0.1-0.7,0.3-1,0.5
		c-0.3,0.1-0.7,0.3-1,0.5c1.7-3.7,2.8-7.7,3.9-12c0.4-1.5,0.5-3.1,0.5-4.7c0,0,0,0,0,0c1-0.2,0.4-0.5,0.5-0.7
		c0.1,0.2,0.3,0.5,0.4,0.7c0,0,0.1,0,0.1,0c0.7,1.6,1.3,3.2,1.8,4.7c0.1,0.4,0.3,0.8,0.4,1.2c0.8,2.5,1.4,4.8,1.8,7.1
		c-0.4,0.1-0.9,0.3-1.4,0.4C285.6,167,285.4,167.1,285.2,167.1z M395.3,229.7c-8.5,8-35.7,3.4-43.1,0.9c-5.4-1.8-11.4-6.4-17.2-13.1
		l-0.7-0.8l-1-0.1c-0.2,0-25.3-2.8-37-32.3c-1.5-3.8-2.1-7.7-2.9-12.2c-1.3-7.6-2.7-16.5-9-27.6c0,0,0-0.1,0-0.1
		c-0.7-1.2-1.5-2.5-2.3-3.8c-0.7-1.1-1.4-2.1-2.1-3.2c-0.1-0.1-0.2-0.3-0.3-0.4c-0.2-0.4-0.5-0.7-0.8-1.1c0.2,0.1,0.5,0.3,0.8,0.5
		c0.1,0.1,0.2,0.1,0.3,0.2c0.9,0.6,1.9,1.2,3,1.8c0.6,0.4,1.2,0.8,1.8,1.1c0,0,0.1,0,0.1,0.1c19.6,12.1,56.9,34.9,72.3,39.5
		c17.8,5.3,29.9,15.8,36.8,32l0.3-0.1c1.1,2.8,2.1,5.8,3,8.9C398.4,224.2,397.8,227.4,395.3,229.7z M440.2,183.5l-1.6,1l0.4,1.8
		c0.1,0.4,1.7,8.8-11.3,14.4c-0.4,0.2-10.3,3.9-15.2,9.3c-1.4,1.5-4.1,2.2-7.1,1.8c-3.3-0.5-6.1-2.1-7.1-4.1l-0.3,0.1
		c-7.7-16.9-20.6-27.9-39.4-33.5c-15.2-4.5-54.2-28.6-73-40.1c-0.2-0.1-0.6-0.3-0.6-0.4v-0.2c-3-1.4-4-2.4-5-3.2v0.2
		c0,0-0.1,0-0.2-0.1c-0.1,0-0.2-0.1-0.2-0.1c-2-1.2-3.1-1.9-3.8-2.2c0.2-0.5,0.3-1,0.5-1.5c0,0,0,0,0,0c0.5-0.7,1-1,1-1
		c0,0,0.6-0.7,1.8-1.6c0.7-0.5,1.5-1.1,2.5-1.6c0.7-0.4,1.6-0.9,2.5-1.3c4.2-1.9,10.2-3.2,17.2-0.8c18.3,6.3,65,11.6,80.2,12.2
		c11.8,0.5,71,4.2,72.4,31.5l0.1,0.5C454.1,164.8,456.1,173.8,440.2,183.5z"/>
</g>
</svg>
