<?xml version="1.0" encoding="utf-8"?>
<!-- Generator: Adobe Illustrator 19.1.0, SVG Export Plug-In . SVG Version: 6.00 Build 0)  -->
<svg version="1.1" id="Layer_1" xmlns="http://www.w3.org/2000/svg" xmlns:xlink="http://www.w3.org/1999/xlink" x="0px" y="0px"
	 viewBox="0 0 300 300" style="enable-background:new 0 0 300 300;" xml:space="preserve">
<style type="text/css">
	.st0{fill:none;stroke:#37424A;stroke-width:5;stroke-miterlimit:10;}
	.st1{fill:#37424A;}
</style>
<g>
	<path class="st1" d="M155.5,295.5c-80.2,0-145.4-65.2-145.4-145.4c0-38.8,15.1-75.2,42.6-102.7C80.1,20,116.6,5,155.5,5
		c0,0,0,0,0,0l0,0l0,0c56.6,0,108.9,32.3,130.2,80.6l9.1,20.5l-13.4-18.1c-19.7-26.6-51.2-42.6-84.3-42.6
		c-57.8,0-104.7,47-104.7,104.7s47,104.7,104.7,104.7c33.1,0,64.6-15.9,84.3-42.5l13.6-18.4l-9.3,20.9c-10.6,23.8-28.5,44-51.8,58.5
		C210.5,287.8,183.4,295.5,155.5,295.5z M155.5,9.7c-37.5,0-72.7,14.6-99.3,41.1c-26.5,26.5-41.1,61.8-41.1,99.3
		c0,77.4,63,140.4,140.4,140.4c27,0,53.1-7.4,75.7-21.4c16.1-10,29.5-22.8,39.5-37.6c-20,18-46.3,28.4-73.6,28.4
		c-60.5,0-109.7-49.2-109.7-109.7c0-60.5,49.2-109.7,109.7-109.7c27.3,0,53.7,10.4,73.7,28.5C246.4,32.8,202.5,9.7,155.5,9.7
		L155.5,9.7z"/>
</g>
</svg>
