<?xml version="1.0" encoding="utf-8"?>
<!-- Generator: Adobe Illustrator 19.1.0, SVG Export Plug-In . SVG Version: 6.00 Build 0)  -->
<svg version="1.1" id="Layer_1" xmlns="http://www.w3.org/2000/svg" xmlns:xlink="http://www.w3.org/1999/xlink" x="0px" y="0px"
	 viewBox="0 0 300 300" style="enable-background:new 0 0 300 300;" xml:space="preserve">
<style type="text/css">
	.st0{fill:none;stroke:#37424A;stroke-width:5;stroke-miterlimit:10;}
	.st1{fill:#37424A;}
</style>
<g>
	<path class="st1" d="M149.5,295.5c-27.9,0-55-7.7-78.4-22.2c-23.3-14.5-41.2-34.7-51.8-58.5L10,193.9l13.6,18.4
		c19.7,26.6,51.2,42.5,84.3,42.5c57.8,0,104.7-47,104.7-104.7s-47-104.7-104.7-104.7c-33.1,0-64.6,15.9-84.3,42.5L10.2,106l9.1-20.6
		C40.6,37.2,92.9,4.7,149.5,4.7c80.2,0,145.4,65.2,145.4,145.4S229.7,295.5,149.5,295.5z M34.3,231.5c10.1,14.8,23.5,27.6,39.5,37.6
		c22.6,14,48.8,21.4,75.7,21.4c77.4,0,140.4-63,140.4-140.4S226.9,9.7,149.5,9.7c-47,0-90.9,23.1-115.3,59.1
		c20-18.1,46.3-28.5,73.7-28.5c60.5,0,109.7,49.2,109.7,109.7c0,60.5-49.2,109.7-109.7,109.7C80.6,259.8,54.3,249.5,34.3,231.5z"/>
</g>
</svg>
