<?xml version="1.0" encoding="utf-8"?>
<!-- Generator: Adobe Illustrator 19.1.0, SVG Export Plug-In . SVG Version: 6.00 Build 0)  -->
<svg version="1.1" xmlns="http://www.w3.org/2000/svg" xmlns:xlink="http://www.w3.org/1999/xlink" x="0px" y="0px"
	 viewBox="0 0 316 307" style="enable-background:new 0 0 316 307;" xml:space="preserve">
<style type="text/css">
	.st0{display:none;}
	.st1{display:inline;}
	.st2{fill:#37424A;}
	.st3{fill:none;stroke:#37424A;stroke-width:24;stroke-miterlimit:10;}
	.st4{fill:none;stroke:#FFFFFF;stroke-width:4;stroke-linecap:round;stroke-miterlimit:10;}
</style>
<g id="bg" class="st0">
</g>
<g id="original">
</g>
<g id="stinger">
</g>
<g id="outlines">
	<path class="st2" d="M315.1,151.5L267.5,69h-82L145.8,0H50.7L3.1,82.5L43.7,153L3.1,223.5L50.7,306h95.1l41.5-72h80.2L315.1,151.5z
		 M64.5,24h67.4l33.2,57.6L130.9,141H64.5L30.8,82.5L64.5,24z M131.9,282H64.5l-33.7-58.5L64.5,165h67.4l33.7,58.5L131.9,282z
		 M186.3,210l-33.2-57.6L187.3,93h66.4l33.7,58.5L253.7,210H186.3z"/>
</g>
</svg>
