<?xml version="1.0" encoding="utf-8"?>
<!-- Generator: Adobe Illustrator 19.1.0, SVG Export Plug-In . SVG Version: 6.00 Build 0)  -->
<svg version="1.1" xmlns="http://www.w3.org/2000/svg" xmlns:xlink="http://www.w3.org/1999/xlink" x="0px" y="0px"
	 viewBox="0 0 321.2 316" style="enable-background:new 0 0 321.2 316;" xml:space="preserve">
<style type="text/css">
	.st0{display:none;}
	.st1{display:inline;}
	.st2{fill:#37424A;}
	.st3{fill:none;stroke:#37424A;stroke-width:32;stroke-miterlimit:10;}
</style>
<g id="bg" class="st0">
</g>
<g id="original">
</g>
<g id="stinger">
</g>
<g id="outlines">
	<path class="st2" d="M321.2,157.5L271.3,71h-82L149.6,2H49.9L0,88.5L40.6,159L0,229.5L49.9,316h99.8l41.5-72h80.2L321.2,157.5z
		 M68.3,34h62.8L162,87.6L130.1,143H68.3L36.9,88.5L68.3,34z M131.1,284H68.3l-31.4-54.5L68.3,175h62.8l31.4,54.5L131.1,284z
		 M190.1,212l-30.9-53.6l31.9-55.4h61.7l31.4,54.5L252.9,212H190.1z"/>
</g>
</svg>
